Coordinates
version=1
nRows=8
nColumns=42
inDegrees=yes

Units are S.I. units (second, meters, Newtons, ...)
If the header above contains a line with 'inDegrees', this indicates whether rotational values are in degrees (yes) or radians (no).

endheader
time	pelvis_tilt	pelvis_list	pelvis_rotation	pelvis_tx	pelvis_ty	pelvis_tz	hip_flexion_r	hip_adduction_r	hip_rotation_r	knee_angle_r	knee_adduction_r	knee_angle_r_beta	ankle_angle_r	subtalar_angle_r	mtp_angle_r	hip_flexion_l	hip_adduction_l	hip_rotation_l	knee_angle_l	knee_adduction_l	knee_angle_l_beta	ankle_angle_l	subtalar_angle_l	mtp_angle_l	lumbar_extension	lumbar_bending	lumbar_rotation	arm_flex_r	arm_add_r	arm_rot_r	elbow_flex_r	pro_sup_r	wrist_flex_r	wrist_dev_r	arm_flex_l	arm_add_l	arm_rot_l	elbow_flex_l	pro_sup_l	wrist_flex_l	wrist_dev_l
      1.96000000	      0.87355308	      0.63102882	     -7.37215451	      0.10991278	      0.86522783	     -0.17176996	    -20.82959932	     -8.29901572	      0.64057944	     15.79873571	     13.87782424	      0.27573996	     12.38116172	      7.06725809	     -7.50595242	     22.13527805	     -7.48884185	     -4.09135726	     11.65495623	     15.57713534	      0.20341736	     -3.85203376	     -7.84097168	     -7.50595242	    -14.90960689	     -1.92525042	      4.27137716	     -2.59984073	    -13.70679386	     -4.98124246	     19.52509256	     90.00000001	      0.00000000	      0.00000000	    -11.97070671	     -6.64954608	      1.45417461	     20.21293625	     90.00000001	      0.00000000	      0.00000000
      1.97000000	      0.83773876	      0.90340604	     -7.16850261	      0.12203779	      0.86579368	     -0.17311896	    -20.11836125	     -9.03997694	     -0.13187985	     18.68035107	     14.20538081	      0.32603363	     10.10526693	      6.92285447	     -7.50566951	     22.28106785	     -7.02829947	     -3.57795132	     13.12351785	     15.69889676	      0.22904860	     -5.01609705	     -8.40165028	     -7.50566951	    -14.95301874	     -2.28702891	      3.97571096	     -2.82512215	    -13.62111672	     -5.07334561	     19.27269900	     90.00000001	      0.00000000	      0.00000000	    -11.82909304	     -6.88390279	      1.37483923	     20.14137690	     90.00000001	      0.00000000	      0.00000000
      1.98000000	      1.20234375	      0.99545334	     -6.98768746	      0.13442197	      0.86723464	     -0.17434805	    -20.00233375	     -9.51119918	     -0.27884417	     20.99069449	     14.34205426	      0.36635673	      7.39528280	      6.84368901	     -7.50555912	     21.73437184	     -6.84667544	     -2.96403984	     14.23320958	     16.14182513	      0.24841637	     -5.28825438	     -8.38766202	     -7.50555912	    -15.47031696	     -2.48822397	      3.76004620	     -3.04682607	    -13.60847593	     -5.13162185	     19.18155891	     90.00000001	      0.00000000	      0.00000000	    -11.65004865	     -7.07568867	      1.33442436	     20.19966920	     90.00000001	      0.00000000	      0.00000000
      1.99000000	      1.06913722	      1.18092329	     -6.74678501	      0.14627032	      0.86801552	     -0.17577805	    -18.68751809	    -10.17586620	     -1.68772138	     24.76737081	     14.25850896	      0.43227217	      5.54817907	      8.83358514	     -7.50504306	     21.84235885	     -6.55766838	     -2.39369408	     15.49295107	     16.44640643	      0.27040301	     -5.31298644	     -8.51475016	     -7.50504306	    -15.45165900	     -2.70321886	      3.47581555	     -3.26157748	    -13.55442854	     -5.32437201	     18.97108673	     90.00000001	      0.00000000	      0.00000000	    -11.45661290	     -7.29157753	      1.21370842	     20.20250815	     90.00000001	      0.00000000	      0.00000000
      2.00000000	      1.46691344	      1.20500165	     -6.50114903	      0.15848427	      0.86993132	     -0.17697034	    -18.28927971	    -10.63123492	     -1.63318250	     27.41793867	     14.53575536	      0.47853330	      2.64468735	      8.28871303	     -7.50498076	     21.02215716	     -6.39175254	     -1.86927509	     16.20219442	     16.78823610	      0.28278164	     -4.83654728	     -8.56315550	     -7.50498076	    -16.02197159	     -2.81572732	      3.19750271	     -3.45042614	    -13.51555923	     -5.35169877	     18.82371578	     90.00000001	      0.00000000	      0.00000000	    -11.24886792	     -7.54250653	      1.18969996	     20.28400215	     90.00000001	      0.00000000	      0.00000000
      2.01000000	      1.55277773	      1.29853545	     -6.27747830	      0.17030087	      0.87153956	     -0.17835944	    -17.13551243	    -11.18521892	     -1.88664268	     30.76482476	     14.61962994	      0.53694749	     -0.12562257	      7.72496549	     -7.50489133	     20.54752577	     -6.17713469	     -1.45836543	     16.91554985	     17.11095368	      0.29523204	     -4.15418810	     -8.37359870	     -7.50489133	    -16.26456298	     -2.92199835	      2.93853395	     -3.64772952	    -13.50930515	     -5.38725672	     18.66549545	     90.00000001	      0.00000000	      0.00000000	    -11.03673763	     -7.74372044	      1.15578699	     20.35545568	     90.00000001	      0.00000000	      0.00000000
      2.02000000	      1.21468823	      1.39160782	     -6.01968293	      0.18168320	      0.87246531	     -0.17990904	    -15.14481781	    -11.74232988	     -2.51110716	     34.75553121	     14.45418022	      0.60659845	     -2.02395383	      8.30315893	     -7.50465149	     20.71459913	     -5.95259473	     -1.48635047	     18.07048316	     17.19463101	      0.31538943	     -3.06412768	     -7.57313261	     -7.50465149	    -16.03722153	     -2.94709978	      2.65551435	     -3.85812718	    -13.51498343	     -5.43430239	     18.48993106	     90.00000001	      0.00000000	      0.00000000	    -10.84411545	     -7.92483181	      1.11343672	     20.37792095	     90.00000001	      0.00000000	      0.00000000
      2.03000000	      1.69361004	      1.24047946	     -5.61683498	      0.19337986	      0.87489627	     -0.18133012	    -14.53569709	    -11.92626404	     -1.95469974	     37.33499130	     14.81376287	      0.65161852	     -3.71829250	      7.83286844	     -7.50461865	     19.58531911	     -5.90575374	     -0.99357575	     18.41673949	     17.53586563	      0.32143274	     -2.28033393	     -7.35880479	     -7.50461865	    -16.76922646	     -2.76762961	      2.25053552	     -3.94416851	    -13.54683927	     -5.46107921	     18.39243073	     90.00000001	      0.00000000	      0.00000000	    -10.57321352	     -8.15112109	      1.10777595	     20.52653173	     90.00000001	      0.00000000	      0.00000000
